<svg xmlns="http://www.w3.org/2000/svg"><symbol viewBox="0 0 24 24" id="check"><title>check</title> <path d="M9 16.17l-4.17-4.17-1.415 1.415 5.585 5.585 12-12-1.415-1.415z" fill="#000000"/> </symbol><symbol viewBox="0 0 24 24" id="chevron-left"><title>chevron-left</title> <path d="M15.415 7.415l-1.415-1.415-6 6 6 6 1.415-1.415-4.585-4.585z" fill="#000000"/> </symbol><symbol viewBox="0 0 24 24" id="chevron-right"><title>chevron-right</title> <path d="M10 6l-1.415 1.415 4.585 4.585-4.585 4.585 1.415 1.415 6-6z" fill="#000000"/> </symbol><symbol viewBox="0 0 24 24" id="close"><title>close</title> <path d="M19 6.415l-1.415-1.415-5.585 5.585-5.585-5.585-1.415 1.415 5.585 5.585-5.585 5.585 1.415 1.415 5.585-5.585 5.585 5.585 1.415-1.415-5.585-5.585z" fill="#000000"/> </symbol><symbol viewBox="0 0 24 24" id="download"><title>download</title> <path d="M19 9h-4v-6h-6v6h-4l7 7 7-7zM5 18v2h14v-2h-14z" fill="#000000"/> </symbol><symbol viewBox="0 0 24 24" id="event"><title>event</title> <path fill="currentColor" d="M17 12h-5v5h5v-5zM16 1v2h-8v-2h-2v2h-1c-1.105 0-1.99 0.895-1.99 2l-0.010 14c0 1.105 0.895 2 2 2h14c1.105 0 2-0.895 2-2v-14c0-1.105-0.895-2-2-2h-1v-2h-2zM19 19h-14v-11h14v11z"/> </symbol><symbol viewBox="0 0 24 24" id="expand-less"><title>expand-less</title> <path d="M12 8l-6 6 1.415 1.415 4.585-4.585 4.585 4.585 1.415-1.415z" fill="#000000"/> </symbol><symbol viewBox="0 0 24 24" id="expand-more"><title>expand-more</title> <path d="M16.585 8.585l-4.585 4.585-4.585-4.585-1.415 1.415 6 6 6-6z" fill="#000000"/> </symbol><symbol viewBox="0 0 24 24" id="favorite"><title>favorite</title> <path d="M12 21.35l-1.45-1.315c-5.15-4.675-8.55-7.76-8.55-11.535 0-3.085 2.415-5.5 5.5-5.5 1.74 0 3.41 0.81 4.5 2.085 1.090-1.275 2.76-2.085 4.5-2.085 3.085 0 5.5 2.415 5.5 5.5 0 3.775-3.4 6.86-8.55 11.535l-1.45 1.315z" fill="#000000"/> </symbol><symbol viewBox="0 0 24 24" id="location"><title>location</title> <path fill="currentColor" d="M12 2c-3.865 0-7 3.135-7 7 0 5.25 7 13 7 13s7-7.75 7-13c0-3.865-3.135-7-7-7zM12 11.5c-1.38 0-2.5-1.12-2.5-2.5s1.12-2.5 2.5-2.5 2.5 1.12 2.5 2.5-1.12 2.5-2.5 2.5z"/> </symbol><symbol viewBox="0 0 24 24" id="menu-white"><title>menu-white</title> <path d="M3 18h18v-2h-18v2zM3 13h18v-2h-18v2zM3 6v2h18v-2h-18z" fill="#FFFFFF"/> </symbol><symbol viewBox="0 0 24 24" id="menu"><title>menu</title> <path d="M3 18h18v-2h-18v2zM3 13h18v-2h-18v2zM3 6v2h18v-2h-18z" fill="#000000"/> </symbol><symbol viewBox="0 0 24 24" id="star"><title>star</title> <path d="M12 17.27l6.18 3.73-1.635-7.030 5.455-4.725-7.19-0.62-2.81-6.625-2.81 6.625-7.19 0.62 5.455 4.725-1.635 7.030z" fill="#000000"/> </symbol><symbol viewBox="0 0 24 24" id="tag"><title>tag</title> <path fill="#000000" d="M21.41 11.58l-8.995-8.995c-0.365-0.36-0.865-0.585-1.415-0.585h-7c-1.105 0-2 0.895-2 2v7c0 0.555 0.225 1.055 0.59 1.415l9 9c0.36 0.36 0.86 0.585 1.41 0.585s1.055-0.225 1.415-0.585l7-7c0.36-0.365 0.585-0.865 0.585-1.415 0-0.555-0.225-1.055-0.59-1.42zM5.5 7c-0.83 0-1.5-0.67-1.5-1.5s0.67-1.5 1.5-1.5 1.5 0.67 1.5 1.5-0.67 1.5-1.5 1.5z"/> </symbol><symbol viewBox="0 0 26 28" id="twitter"><title>twitter</title> <path d="M0.688 21.734q0.547 0.063 1.219 0.063 3.516 0 6.266-2.156-1.641-0.031-2.938-1.008t-1.781-2.492q0.516 0.078 0.953 0.078 0.672 0 1.328-0.172-1.75-0.359-2.898-1.742t-1.148-3.211v-0.063q1.062 0.594 2.281 0.641-1.031-0.688-1.641-1.797t-0.609-2.406q0-1.375 0.688-2.547 1.891 2.328 4.602 3.727t5.805 1.555q-0.125-0.594-0.125-1.156 0-2.094 1.477-3.57t3.57-1.477q2.188 0 3.687 1.594 1.703-0.328 3.203-1.219-0.578 1.797-2.219 2.781 1.453-0.156 2.906-0.781-1.047 1.531-2.531 2.609 0.016 0.219 0.016 0.656 0 2.031-0.594 4.055t-1.805 3.883-2.883 3.289-4.031 2.281-5.047 0.852q-4.234 0-7.75-2.266z" fill="currentColor"/> </symbol></svg>