<?xml version="1.0" standalone="no"?>
<!DOCTYPE svg PUBLIC "-//W3C//DTD SVG 20010904//EN"
 "http://www.w3.org/TR/2001/REC-SVG-20010904/DTD/svg10.dtd">
<svg version="1.0" xmlns="http://www.w3.org/2000/svg"
 width="512.000000pt" height="512.000000pt" viewBox="0 0 512.000000 512.000000"
 preserveAspectRatio="xMidYMid meet">
<metadata>
Created by potrace 1.11, written by Peter Selinger 2001-2013
</metadata>
<g transform="translate(0.000000,512.000000) scale(0.100000,-0.100000)"
fill="#000000" stroke="none">
<path d="M0 2560 l0 -2560 2560 0 2560 0 0 2560 0 2560 -2560 0 -2560 0 0
-2560z m2140 221 c0 -1329 -2 -1550 -14 -1560 -8 -7 -34 -11 -58 -9 l-43 3 -2
130 c-2 72 5 423 15 780 10 358 16 656 14 663 -2 7 -22 22 -43 33 -22 11 -39
21 -39 23 0 2 -7 66 -15 143 -19 165 -16 183 26 183 22 0 32 5 36 20 3 13 14
20 29 20 13 0 27 8 32 18 5 9 13 258 16 552 4 294 10 538 12 542 3 5 12 8 20
8 12 0 14 -207 14 -1549z m73 1187 c4 -199 7 -445 7 -548 0 -196 3 -210 46
-210 13 0 24 -8 27 -19 3 -14 15 -21 38 -23 33 -3 34 -5 37 -48 4 -46 -14
-249 -24 -274 -3 -8 -18 -20 -34 -26 -16 -7 -34 -18 -40 -25 -7 -8 -4 -247 11
-784 17 -610 19 -775 9 -786 -15 -18 -91 -20 -108 -3 -9 9 -12 368 -12 1553 0
848 3 1545 7 1548 27 28 30 -2 36 -355z m660 -815 c4 -2 7 -21 7 -42 l0 -39
-85 6 c-79 4 -87 3 -110 -18 -44 -41 -50 -80 -50 -300 0 -199 1 -207 25 -255
31 -61 61 -73 155 -59 l65 10 0 -42 c0 -42 -1 -43 -37 -51 -74 -14 -159 -7
-204 18 -82 46 -109 142 -109 386 0 273 39 367 162 393 40 8 164 4 181 -7z
m1757 -13 c70 -36 102 -106 102 -224 -1 -101 -17 -153 -61 -197 -43 -43 -91
-59 -183 -59 l-67 0 -3 -147 -3 -148 -47 -3 -48 -3 0 400 0 400 68 4 c111 7
200 -2 242 -23z m-3186 6 c69 -21 86 -40 86 -95 0 -93 -67 -265 -115 -297 -21
-14 -26 -14 -54 1 -84 43 -190 311 -152 383 11 20 20 22 100 22 48 0 109 -6
135 -14z m1933 -376 c50 -212 92 -391 92 -397 1 -9 -15 -13 -48 -13 l-49 0
-15 68 c-8 37 -18 82 -22 100 l-7 33 -111 -3 -112 -3 -21 -95 -20 -95 -50 0
c-43 0 -49 2 -46 20 9 51 174 733 182 753 9 21 15 23 72 20 l63 -3 92 -385z
m428 220 c23 -91 45 -178 49 -194 4 -15 9 -26 13 -23 3 3 26 90 52 194 l47
188 80 0 79 0 0 -395 0 -395 -47 -3 -48 -3 0 343 c0 189 -4 336 -9 328 -4 -8
-25 -78 -45 -155 -21 -77 -44 -164 -53 -192 l-14 -53 -48 0 -48 0 -52 198
c-29 108 -57 201 -62 207 -5 5 -9 -130 -9 -334 l0 -342 -42 3 -43 3 -3 385
c-1 212 0 391 3 398 3 9 26 12 82 10 l77 -3 41 -165z m-2742 138 c-14 -40 -4
-113 28 -204 63 -180 154 -314 212 -314 15 0 27 -4 27 -9 0 -18 -88 -128 -144
-178 -65 -59 -107 -73 -153 -50 -149 77 -350 551 -278 655 26 36 97 71 196 97
120 31 122 31 112 3z m-275 -964 c19 -5 22 -13 22 -56 l0 -50 -30 5 c-16 4
-58 9 -92 12 -113 11 -168 -42 -168 -163 0 -105 15 -121 143 -157 72 -20 129
-69 154 -133 26 -69 24 -230 -4 -293 -44 -99 -124 -135 -277 -126 -123 7 -126
8 -126 69 0 44 2 49 18 43 9 -3 53 -9 97 -12 145 -10 188 30 188 174 -1 49 -7
84 -19 110 -20 39 -27 43 -159 89 -96 33 -135 101 -135 236 0 147 55 227 177
258 38 9 168 6 211 -6z m334 -186 l3 -83 78 -3 77 -3 0 -49 0 -49 -77 -3 -78
-3 -3 -210 c-2 -141 1 -219 9 -238 14 -32 43 -42 105 -33 l44 6 0 -49 0 -50
-56 -7 c-104 -13 -163 10 -196 77 -16 30 -18 65 -18 272 l0 237 -45 0 -45 0 0
49 0 50 43 3 42 3 3 83 3 82 54 0 54 0 3 -82z m3298 -8 l0 -80 80 0 80 0 0
-50 0 -49 -77 -3 -78 -3 0 -227 c0 -268 -2 -263 95 -260 l60 2 0 -44 c0 -51
-9 -56 -108 -56 -73 0 -110 17 -138 64 -17 27 -20 59 -24 276 l-5 245 -42 3
-43 3 0 49 0 49 43 3 42 3 3 78 3 77 54 0 55 0 0 -80z m-1475 -82 l100 -3 0
-45 0 -45 -43 0 c-43 0 -44 0 -35 -30 4 -16 8 -69 8 -116 0 -77 -3 -90 -28
-127 -15 -23 -45 -51 -66 -61 -50 -26 -164 -44 -220 -36 -50 8 -61 -2 -61 -52
l0 -32 133 2 c119 2 136 0 178 -21 63 -31 92 -83 92 -171 1 -88 -21 -133 -82
-169 -45 -26 -50 -27 -186 -26 -77 1 -158 6 -180 11 -36 8 -41 13 -54 51 -7
24 -11 45 -9 48 3 2 45 0 94 -6 49 -5 126 -10 170 -10 107 0 128 14 128 90 0
46 -4 56 -29 78 -28 24 -31 24 -174 21 l-146 -4 -22 45 c-27 52 -29 106 -8
157 13 32 14 38 1 52 -50 55 -64 218 -25 298 41 85 111 114 259 108 58 -2 150
-5 205 -7z m575 -10 c35 -18 51 -35 70 -73 23 -47 25 -61 30 -270 5 -219 5
-220 27 -223 25 -4 37 -33 31 -73 -3 -22 -8 -24 -50 -23 -37 0 -54 6 -75 26
l-28 26 -23 -23 c-49 -47 -182 -60 -258 -26 -65 29 -88 71 -93 164 -4 89 8
126 53 176 45 48 88 64 196 70 l95 6 -1 59 c-1 53 -5 63 -30 84 -27 23 -33 24
-123 19 -53 -3 -106 -9 -118 -12 -22 -7 -23 -5 -23 43 l0 51 43 9 c23 6 85 10
137 11 81 1 103 -3 140 -21z m598 -40 l3 -57 -65 2 c-59 2 -68 -1 -95 -27 -43
-41 -51 -95 -51 -336 l0 -210 -55 0 -55 0 0 340 0 340 45 0 c39 0 45 -3 51
-25 8 -31 15 -31 40 -4 28 31 52 38 119 36 l60 -2 3 -57z m-2588 -226 c5 -273
5 -274 29 -293 29 -24 93 -25 132 -2 16 10 38 36 49 58 18 38 20 63 20 278 l0
237 55 0 55 0 0 -340 0 -340 -50 0 c-43 0 -50 3 -50 19 0 24 -16 36 -26 20
-14 -23 -90 -49 -144 -49 -79 0 -133 28 -162 82 -22 42 -23 53 -26 326 l-3
283 58 -3 58 -3 5 -273z"/>
<path d="M4420 2909 l0 -172 71 6 c55 5 77 11 95 28 58 55 60 225 2 286 -19
20 -31 23 -95 23 l-73 0 0 -171z"/>
<path d="M3211 3059 c-1 -4 -19 -91 -41 -194 -22 -103 -40 -194 -40 -201 0
-11 20 -14 91 -14 81 0 90 2 85 18 -3 9 -21 94 -41 187 -31 147 -52 226 -54
204z"/>
<path d="M2672 1800 c-27 -4 -53 -17 -70 -33 -22 -23 -27 -37 -30 -94 -2 -43
2 -77 10 -93 43 -81 223 -78 262 5 9 18 16 59 16 90 0 51 -3 60 -34 91 -21 21
-44 34 -59 34 -14 0 -31 2 -39 4 -7 2 -32 0 -56 -4z"/>
<path d="M3341 1527 c-52 -18 -74 -55 -74 -123 0 -50 4 -61 27 -81 21 -18 39
-23 81 -23 46 0 60 5 87 29 33 29 33 31 33 118 l0 88 -60 2 c-33 1 -75 -3 -94
-10z"/>
</g>
</svg>
